<svg width="83" height="83" viewBox="0 0 83 83" fill="currentColor" xmlns="http://www.w3.org/2000/svg">
<path fill-rule="evenodd" clip-rule="evenodd" d="M9 0C4.02944 0 0 4.02944 0 9V73.5644C0 78.535 4.02944 82.5644 9 82.5644H73.5644C78.535 82.5644 82.5644 78.535 82.5644 73.5644V9C82.5644 4.02944 78.535 0 73.5644 0H9Z" fill="#783DB0"/>
<mask id="mask0_895_3886" style="mask-type:luminance" maskUnits="userSpaceOnUse" x="0" y="0" width="83" height="83">
<path fill-rule="evenodd" clip-rule="evenodd" d="M9 0C4.02944 0 0 4.02944 0 9V73.5644C0 78.535 4.02944 82.5644 9 82.5644H73.5644C78.535 82.5644 82.5644 78.535 82.5644 73.5644V9C82.5644 4.02944 78.535 0 73.5644 0H9Z" fill="white"/>
</mask>
<g mask="url(#mask0_895_3886)">
</g>
<path fill-rule="evenodd" clip-rule="evenodd" d="M50.7516 27.5218L50.7513 27.5223C57.8592 27.5402 62.0264 33.6936 60.0603 41.2824C58.0943 48.8718 53.0826 55.0427 40.7016 55.0427L23.0778 55.0433C22.5675 55.0433 22.1975 54.5249 22.3334 54.0002L24.9558 43.8772H17.2854C16.7751 43.8772 16.4051 43.3586 16.541 42.8342L17.7755 38.0422C17.8679 37.6853 18.1728 37.4379 18.5201 37.4379H26.6171L29.0363 28.1264C29.1287 27.7692 29.4333 27.5218 29.7809 27.5218H50.7516ZM31.0283 49.377H42.1113C48.68 49.377 51.7213 45.746 52.8011 41.2823C53.8808 36.8186 53.1138 33.1879 46.8188 33.1879H35.1079L31.0283 49.377Z" fill="white"/>
</svg>